<?xml version="1.0" standalone="no"?>
<!DOCTYPE svg PUBLIC "-//W3C//DTD SVG 20010904//EN"
 "http://www.w3.org/TR/2001/REC-SVG-20010904/DTD/svg10.dtd">
<svg version="1.0" xmlns="http://www.w3.org/2000/svg"
 width="600.000000pt" height="600.000000pt" viewBox="0 0 600.000000 600.000000"
 preserveAspectRatio="xMidYMid meet">
<metadata>
Created by potrace 1.15, written by Peter Selinger 2001-2017
</metadata>
<g transform="translate(0.000000,600.000000) scale(0.100000,-0.100000)"
fill="#000000" stroke="none">
<path d="M2660 5969 c-427 -57 -801 -177 -1124 -361 -810 -460 -1354 -1241
-1496 -2148 -25 -164 -30 -236 -30 -460 0 -223 4 -281 31 -465 10 -71 12 -81
49 -241 30 -132 96 -331 155 -469 224 -525 616 -995 1090 -1309 149 -98 225
-140 235 -130 9 9 953 1963 1028 2127 19 42 33 79 31 82 -3 2 -249 69 -549
150 -299 80 -546 147 -547 149 -2 2 593 642 1322 1422 l1326 1418 -28 15 c-68
35 -293 111 -433 145 -149 37 -240 53 -413 76 -93 12 -554 11 -647 -1z"/>
<path d="M3885 4678 c-258 -535 -484 -1006 -504 -1046 -25 -51 -32 -75 -24
-80 6 -4 255 -72 552 -152 298 -79 540 -147 539 -151 -2 -4 -621 -668 -1376
-1475 l-1373 -1469 28 -12 c15 -7 53 -24 84 -38 177 -78 460 -162 659 -196
333 -57 714 -56 1040 0 193 34 486 119 623 180 305 138 485 245 716 425 135
104 373 342 477 477 180 231 287 411 425 716 61 137 146 430 180 623 56 326
57 707 0 1040 -135 796 -627 1538 -1316 1984 -98 64 -241 146 -253 146 -5 0
-220 -438 -477 -972z"/>
</g>
</svg>
